<svg width="300" height="300" viewBox="0 0 300 300" fill="none" xmlns="http://www.w3.org/2000/svg">
<rect width="300" height="300" fill="#121621"/>
<path d="M175.2 170C172.749 170 171.523 170 170.762 170.762C170 171.523 170 172.749 170 175.2L170 188.8C170 191.251 170 192.477 170.762 193.238C171.523 194 172.749 194 175.2 194L188.8 194C191.251 194 192.477 194 193.238 193.238C194 192.477 194 191.251 194 188.8V175.2C194 172.749 194 171.523 193.238 170.762C192.477 170 191.251 170 188.8 170H175.2Z" fill="#FF6E3C"/>
<path fill-rule="evenodd" clip-rule="evenodd" d="M181 170H176V165C176 167.257 176 168.386 176.654 169.124C176.723 169.203 176.797 169.277 176.876 169.346C177.614 170 178.743 170 181 170Z" fill="#FF6E3C"/>
<path fill-rule="evenodd" clip-rule="evenodd" d="M165 176H170V181C170 178.743 170 177.614 169.346 176.876C169.277 176.797 169.203 176.723 169.124 176.654C168.386 176 167.257 176 165 176Z" fill="#FF6E3C"/>
<path d="M99.4317 165.373C99.4317 162.893 99.4317 161.654 98.6615 160.884C97.8913 160.114 96.6518 160.114 94.1726 160.114L79.2044 160.114L79.2044 175.082C79.2044 177.561 79.2044 178.8 79.9746 179.571C80.7448 180.341 81.9843 180.341 84.4635 180.341L94.1726 180.341C96.6517 180.341 97.8913 180.341 98.6615 179.571C99.4317 178.8 99.4317 177.561 99.4317 175.082L99.4317 165.373Z" fill="#FF6E3C"/>
<path d="M89.318 149.191C89.318 146.712 89.318 145.472 88.5479 144.702C87.7777 143.932 86.5381 143.932 84.059 143.932H78.3953C75.9162 143.932 74.6766 143.932 73.9064 144.702C73.1362 145.472 73.1362 146.712 73.1362 149.191L73.1362 154.854C73.1362 157.334 73.1362 158.573 73.9064 159.343C74.6766 160.114 75.9162 160.114 78.3953 160.114H89.318V149.191Z" fill="#FF6E3C"/>
<path fill-rule="evenodd" clip-rule="evenodd" d="M94.3749 160.114L89.318 160.114L89.318 155.057C89.318 157.34 89.318 158.481 89.9794 159.228C90.0496 159.307 90.1246 159.382 90.2039 159.452C90.9503 160.114 92.0918 160.114 94.3749 160.114Z" fill="#FF6E3C"/>
<path fill-rule="evenodd" clip-rule="evenodd" d="M77.4851 160.114L79.2044 160.114L79.2044 161.833C79.2044 161.057 79.2044 160.669 78.9796 160.415C78.9557 160.388 78.9302 160.362 78.9032 160.338C78.6494 160.114 78.2613 160.114 77.4851 160.114Z" fill="#FF6E3C"/>
<path fill-rule="evenodd" clip-rule="evenodd" d="M205.625 139.887H210.682L210.682 144.943C210.682 142.66 210.682 141.519 210.02 140.772C209.95 140.693 209.875 140.618 209.796 140.548C209.049 139.887 207.908 139.887 205.625 139.887Z" fill="#FF6E3C"/>
<path fill-rule="evenodd" clip-rule="evenodd" d="M222.515 139.887H220.795V138.167C220.795 138.943 220.795 139.332 221.02 139.585C221.044 139.612 221.069 139.638 221.096 139.662C221.35 139.887 221.738 139.887 222.515 139.887Z" fill="#FF6E3C"/>
<path d="M200.568 134.627C200.568 137.107 200.568 138.346 201.338 139.116C202.108 139.887 203.348 139.887 205.827 139.887L220.795 139.887L220.795 124.918C220.795 122.439 220.795 121.2 220.025 120.429C219.255 119.659 218.015 119.659 215.536 119.659H205.827C203.348 119.659 202.108 119.659 201.338 120.429C200.568 121.2 200.568 122.439 200.568 124.918L200.568 134.627Z" fill="#FF6E3C"/>
<path d="M210.682 150.809C210.682 153.288 210.682 154.528 211.452 155.298C212.222 156.068 213.461 156.068 215.941 156.068L221.604 156.068C224.083 156.068 225.323 156.068 226.093 155.298C226.863 154.528 226.863 153.288 226.863 150.809V145.146C226.863 142.666 226.863 141.427 226.093 140.657C225.323 139.887 224.083 139.887 221.604 139.887L210.682 139.887V150.809Z" fill="#FF6E3C"/>
<path fill-rule="evenodd" clip-rule="evenodd" d="M161.833 220.796H160.113V222.515C160.113 221.739 160.113 221.351 160.338 221.097C160.362 221.07 160.388 221.044 160.415 221.02C160.668 220.796 161.057 220.796 161.833 220.796Z" fill="#FF6E3C"/>
<path d="M165.373 200.568C162.893 200.568 161.654 200.568 160.884 201.338C160.113 202.109 160.113 203.348 160.113 205.827V220.796L175.082 220.796C177.561 220.796 178.8 220.796 179.571 220.025C180.341 219.255 180.341 218.016 180.341 215.536V205.827C180.341 203.348 180.341 202.109 179.571 201.338C178.8 200.568 177.561 200.568 175.082 200.568H165.373Z" fill="#FF6E3C"/>
<path d="M149.191 210.682C146.712 210.682 145.472 210.682 144.702 211.452C143.932 212.222 143.932 213.462 143.932 215.941L143.932 221.605C143.932 224.084 143.932 225.323 144.702 226.094C145.472 226.864 146.712 226.864 149.191 226.864L154.854 226.864C157.334 226.864 158.573 226.864 159.343 226.094C160.113 225.323 160.113 224.084 160.113 221.605V210.682H149.191Z" fill="#FF6E3C"/>
<path fill-rule="evenodd" clip-rule="evenodd" d="M160.113 205.625L160.113 210.682H155.057C157.34 210.682 158.481 210.682 159.228 210.021C159.307 209.95 159.382 209.875 159.452 209.796C160.113 209.05 160.113 207.908 160.113 205.625Z" fill="#FF6E3C"/>
<path fill-rule="evenodd" clip-rule="evenodd" d="M138.167 79.2044H139.886V77.4851C139.886 78.2613 139.886 78.6494 139.661 78.9032C139.637 78.9301 139.612 78.9556 139.585 78.9795C139.331 79.2044 138.943 79.2044 138.167 79.2044Z" fill="#FF6E3C"/>
<path d="M134.627 99.4314C137.106 99.4314 138.346 99.4314 139.116 98.6613C139.886 97.8911 139.886 96.6515 139.886 94.1724V79.2044L124.918 79.2042C122.439 79.2042 121.199 79.2042 120.429 79.9743C119.659 80.7445 119.659 81.9841 119.659 84.4633L119.659 94.1724C119.659 96.6515 119.659 97.8911 120.429 98.6613C121.199 99.4314 122.439 99.4314 124.918 99.4314L134.627 99.4314Z" fill="#FF6E3C"/>
<path d="M150.809 89.3178C153.288 89.3178 154.528 89.3178 155.298 88.5476C156.068 87.7775 156.068 86.5379 156.068 84.0587V78.3951C156.068 75.9159 156.068 74.6763 155.298 73.9062C154.528 73.136 153.288 73.136 150.809 73.136H145.145C142.666 73.136 141.427 73.136 140.656 73.9062C139.886 74.6763 139.886 75.9159 139.886 78.3951V89.3178L150.809 89.3178Z" fill="#FF6E3C"/>
<path fill-rule="evenodd" clip-rule="evenodd" d="M139.886 94.3748L139.886 89.3178L144.943 89.318C142.66 89.318 141.518 89.318 140.772 89.9793C140.693 90.0496 140.618 90.1245 140.548 90.2038C139.886 90.9503 139.886 92.0918 139.886 94.3748Z" fill="#FF6E3C"/>
<rect width="8.09091" height="8.09091" rx="4.04545" transform="matrix(4.37114e-08 -1 -1 -4.37114e-08 198.546 230.909)" fill="#FF6E3C"/>
<rect width="8.09091" height="8.09091" rx="4.04545" transform="matrix(4.37114e-08 -1 -1 -4.37114e-08 109.545 77.1816)" fill="#FF6E3C"/>
<rect width="8.09091" height="8.09091" rx="4.04545" transform="matrix(4.37114e-08 -1 -1 -4.37114e-08 129.773 69.0908)" fill="#FF6E3C"/>
<rect width="8.09091" height="8.09091" rx="4.04545" transform="matrix(4.37114e-08 -1 -1 -4.37114e-08 178.318 239)" fill="#FF6E3C"/>
<rect width="8.09091" height="8.09091" rx="4.04545" transform="matrix(1 0 0 -1 69.0911 198.545)" fill="#FF6E3C"/>
<rect width="8.09091" height="8.09091" rx="4.04545" transform="matrix(-1 0 0 1 239 121.682)" fill="#FF6E3C"/>
<rect width="8.09091" height="8.09091" rx="4.04545" transform="matrix(-1 0 0 1 230.909 101.454)" fill="#FF6E3C"/>
<rect width="8.09091" height="8.09091" rx="4.04545" transform="matrix(1 0 0 -1 61 178.318)" fill="#FF6E3C"/>
<rect width="12.1364" height="12.1364" rx="6.06818" transform="matrix(1 8.74228e-08 8.74228e-08 -1 69.0911 133.818)" fill="#FF6E3C"/>
<rect width="12.1364" height="12.1364" rx="6.06818" transform="matrix(-1 -8.74228e-08 -8.74228e-08 1 230.909 166.182)" fill="#FF6E3C"/>
<rect width="12.1364" height="12.1364" rx="6.06818" transform="matrix(-4.37114e-08 1 1 4.37114e-08 166.182 69.0913)" fill="#FF6E3C"/>
<rect width="12.1364" height="12.1364" rx="6.06818" transform="matrix(4.37114e-08 -1 -1 -4.37114e-08 133.818 230.909)" fill="#FF6E3C"/>
<path d="M143.846 129.2C143.846 126.749 143.846 125.523 143.09 124.762C142.334 124 141.117 124 138.684 124H129.154C126.721 124 125.504 124 124.749 124.762C123.993 125.523 123.993 126.749 123.993 129.2L123.993 138.8C123.993 141.251 123.993 142.477 124.749 143.238C125.504 144 126.721 144 129.154 144H138.684C139.12 144 139.517 144 139.879 143.996C141.538 143.976 142.469 143.864 143.09 143.238C143.71 142.613 143.821 141.676 143.841 140.004C143.846 139.639 143.846 139.239 143.846 138.8L143.846 129.2Z" fill="#FF6E3C"/>
<path fill-rule="evenodd" clip-rule="evenodd" d="M126.474 144H129.949V147.5C129.949 145.92 129.949 145.13 129.494 144.613C129.446 144.558 129.394 144.506 129.34 144.458C128.827 144 128.043 144 126.474 144Z" fill="#FF6E3C"/>
<path fill-rule="evenodd" clip-rule="evenodd" d="M147.32 130H143.846V126.5C143.846 128.08 143.846 128.87 144.3 129.387C144.348 129.442 144.4 129.494 144.454 129.542C144.967 130 145.751 130 147.32 130Z" fill="#FF6E3C"/>
<path d="M148.809 170H135.11C132.677 170 131.46 170 130.704 169.238C129.949 168.477 129.949 167.251 129.949 164.8L129.949 144H138.684C139.12 144 139.517 144 139.879 143.996C139.875 144.361 139.875 144.761 139.875 145.2V154.8C139.875 157.251 139.875 158.477 140.631 159.238C141.387 160 142.603 160 145.037 160H154.566C155.002 160 155.399 160 155.762 159.996C155.757 160.361 155.757 160.761 155.757 161.2V170H152.283H148.809Z" fill="#FF6E3C"/>
<path fill-rule="evenodd" clip-rule="evenodd" d="M155.762 159.996C155.757 160.361 155.757 160.761 155.757 161.2V170H164.493C166.926 170 168.143 170 168.898 169.238C169.654 168.477 169.654 167.251 169.654 164.8V156V135.2C169.654 132.749 169.654 131.523 168.898 130.762C168.143 130 166.926 130 164.493 130H135.11C132.677 130 131.46 130 130.704 130.762C129.949 131.523 129.949 132.749 129.949 135.2L129.949 144H138.684C139.12 144 139.517 144 139.879 143.996C141.538 143.976 142.469 143.864 143.09 143.238C143.71 142.613 143.821 141.676 143.841 140.004C144.204 140 144.601 140 145.037 140H154.566C156.999 140 158.216 140 158.972 140.762C159.728 141.523 159.728 142.749 159.728 145.2V154.8C159.728 155.239 159.728 155.639 159.724 156.004C159.704 157.676 159.592 158.613 158.972 159.238C158.352 159.864 157.421 159.976 155.762 159.996Z" fill="#FF6E3C"/>
<path d="M169.654 152.3C169.654 153.97 169.654 154.806 170.135 155.352C170.186 155.41 170.24 155.465 170.298 155.516C170.84 156 171.669 156 173.327 156H170.449H169.654V152.3Z" fill="#FF6E3C"/>
<path d="M169.654 156H170.449C172.882 156 174.098 156 174.854 156.762C175.61 157.523 175.61 158.749 175.61 161.2V170.8C175.61 173.251 175.61 174.477 174.854 175.238C174.098 176 172.882 176 170.449 176L160.919 176C158.486 176 157.269 176 156.513 175.238C155.757 174.477 155.757 173.251 155.757 170.8V170H164.493C166.926 170 168.143 170 168.898 169.238C169.654 168.477 169.654 167.251 169.654 164.8V156Z" fill="#FF6E3C"/>
<path d="M152.283 170H155.757V170.8V173.5C155.757 171.92 155.757 171.13 155.303 170.613C155.255 170.558 155.203 170.506 155.149 170.458C154.636 170 153.852 170 152.283 170Z" fill="#FF6E3C"/>
<path fill-rule="evenodd" clip-rule="evenodd" d="M106.535 193.465C106 192.93 106 192.068 106 190.346V180.789C106 179.067 106 178.205 106.535 177.67C107.07 177.135 107.932 177.135 109.654 177.135H118.649V177.697C118.649 179.42 118.649 180.281 119.184 180.816C119.719 181.351 120.58 181.351 122.303 181.351H122.865V190.346C122.865 192.068 122.865 192.93 122.33 193.465C121.795 194 120.933 194 119.211 194H109.654C107.932 194 107.07 194 106.535 193.465Z" fill="#FF6E3C"/>
<path fill-rule="evenodd" clip-rule="evenodd" d="M193.465 106.535C194 107.07 194 107.932 194 109.654V119.211C194 120.933 194 121.795 193.465 122.33C192.93 122.865 192.068 122.865 190.346 122.865H181.351V122.303C181.351 120.58 181.351 119.719 180.816 119.184C180.281 118.649 179.42 118.649 177.697 118.649H177.135V109.654C177.135 107.932 177.135 107.07 177.67 106.535C178.205 106 179.067 106 180.789 106H190.346C192.068 106 192.93 106 193.465 106.535Z" fill="#FF6E3C"/>
<path d="M77.1818 96.1954C77.1818 98.6745 77.1818 99.9141 77.9519 100.684C78.7221 101.454 79.9617 101.454 82.4409 101.454L84.059 101.454C86.5382 101.454 87.7778 101.454 88.548 100.684C89.3181 99.9141 89.3181 98.6745 89.3181 96.1954V94.5772C89.3181 92.098 89.3181 90.8584 88.548 90.0883C87.7778 89.3181 86.5382 89.3181 84.059 89.3181H82.4409C79.9617 89.3181 78.7221 89.3181 77.952 90.0883C77.1818 90.8584 77.1818 92.098 77.1818 94.5772L77.1818 96.1954Z" fill="#FF6E3C"/>
<path d="M83.25 90.1272C83.25 92.6063 83.25 93.8459 84.0201 94.6161C84.7903 95.3863 86.0299 95.3863 88.509 95.3863H90.1272C92.6064 95.3863 93.846 95.3863 94.6161 94.6161C95.3863 93.8459 95.3863 92.6063 95.3863 90.1272V88.509C95.3863 86.0298 95.3863 84.7903 94.6161 84.0201C93.846 83.2499 92.6064 83.2499 90.1272 83.2499H88.509C86.0299 83.2499 84.7903 83.2499 84.0201 84.0201C83.25 84.7903 83.25 86.0298 83.25 88.509V90.1272Z" fill="#FF6E3C"/>
<path fill-rule="evenodd" clip-rule="evenodd" d="M89.3181 98.926V95.3863H92.8579C91.2598 95.3863 90.4607 95.3863 89.9382 95.8492C89.8827 95.8984 89.8302 95.9509 89.781 96.0064C89.3181 96.5289 89.3181 97.3279 89.3181 98.926Z" fill="#FF6E3C"/>
<path fill-rule="evenodd" clip-rule="evenodd" d="M83.25 85.7783V89.3181H79.7102C81.3083 89.3181 82.1074 89.3181 82.6299 88.8552C82.6854 88.806 82.7379 88.7535 82.787 88.698C83.25 88.1755 83.25 87.3764 83.25 85.7783Z" fill="#FF6E3C"/>
<path d="M222.818 203.804C222.818 201.325 222.818 200.086 222.048 199.315C221.278 198.545 220.038 198.545 217.559 198.545H215.941C213.462 198.545 212.222 198.545 211.452 199.315C210.682 200.086 210.682 201.325 210.682 203.804V205.423C210.682 207.902 210.682 209.141 211.452 209.912C212.222 210.682 213.462 210.682 215.941 210.682H217.559C220.038 210.682 221.278 210.682 222.048 209.912C222.818 209.141 222.818 207.902 222.818 205.423V203.804Z" fill="#FF6E3C"/>
<path d="M216.75 209.873C216.75 207.393 216.75 206.154 215.98 205.384C215.21 204.614 213.97 204.614 211.491 204.614H209.873C207.394 204.614 206.154 204.614 205.384 205.384C204.614 206.154 204.614 207.393 204.614 209.873L204.614 211.491C204.614 213.97 204.614 215.21 205.384 215.98C206.154 216.75 207.394 216.75 209.873 216.75L211.491 216.75C213.97 216.75 215.21 216.75 215.98 215.98C216.75 215.21 216.75 213.97 216.75 211.491V209.873Z" fill="#FF6E3C"/>
<path fill-rule="evenodd" clip-rule="evenodd" d="M216.75 214.221V210.682H220.29C218.692 210.682 217.893 210.682 217.37 211.145C217.315 211.194 217.262 211.246 217.213 211.302C216.75 211.824 216.75 212.623 216.75 214.221Z" fill="#FF6E3C"/>
<path fill-rule="evenodd" clip-rule="evenodd" d="M210.682 201.074V204.614H207.142C208.74 204.614 209.539 204.614 210.062 204.151C210.117 204.101 210.17 204.049 210.219 203.993C210.682 203.471 210.682 202.672 210.682 201.074Z" fill="#FF6E3C"/>
<path d="M203.805 77.1816C201.325 77.1816 200.086 77.1816 199.316 77.9517C198.546 78.7219 198.546 79.9615 198.546 82.4406L198.546 84.0588C198.546 86.538 198.546 87.7776 199.316 88.5477C200.086 89.3179 201.325 89.3179 203.805 89.3179H205.423C207.902 89.3179 209.142 89.3179 209.912 88.5477C210.682 87.7776 210.682 86.538 210.682 84.0588V82.4406C210.682 79.9615 210.682 78.7219 209.912 77.9517C209.142 77.1816 207.902 77.1816 205.423 77.1816H203.805Z" fill="#FF6E3C"/>
<path d="M209.873 83.2497C207.394 83.2497 206.154 83.2497 205.384 84.0199C204.614 84.7901 204.614 86.0297 204.614 88.5088V90.127C204.614 92.6062 204.614 93.8457 205.384 94.6159C206.154 95.3861 207.394 95.3861 209.873 95.3861L211.491 95.3861C213.97 95.3861 215.21 95.3861 215.98 94.6159C216.75 93.8457 216.75 92.6062 216.75 90.127V88.5088C216.75 86.0297 216.75 84.7901 215.98 84.0199C215.21 83.2497 213.97 83.2497 211.491 83.2497H209.873Z" fill="#FF6E3C"/>
<path fill-rule="evenodd" clip-rule="evenodd" d="M204.614 92.8577V89.3179H201.074C202.672 89.3179 203.471 89.3179 203.994 89.7808C204.049 89.83 204.102 89.8825 204.151 89.938C204.614 90.4605 204.614 91.2596 204.614 92.8577Z" fill="#FF6E3C"/>
<path fill-rule="evenodd" clip-rule="evenodd" d="M210.682 79.71V83.2497H214.222C212.624 83.2497 211.825 83.2497 211.302 82.7868C211.246 82.7376 211.194 82.6852 211.145 82.6297C210.682 82.1071 210.682 81.3081 210.682 79.71Z" fill="#FF6E3C"/>
<path d="M96.1956 222.818C98.6747 222.818 99.9143 222.818 100.685 222.048C101.455 221.278 101.455 220.038 101.455 217.559V215.941C101.455 213.462 101.455 212.222 100.685 211.452C99.9143 210.682 98.6747 210.682 96.1956 210.682H94.5774C92.0982 210.682 90.8587 210.682 90.0885 211.452C89.3183 212.222 89.3183 213.462 89.3183 215.941V217.559C89.3183 220.038 89.3183 221.278 90.0885 222.048C90.8587 222.818 92.0982 222.818 94.5774 222.818L96.1956 222.818Z" fill="#FF6E3C"/>
<path d="M90.1274 216.75C92.6066 216.75 93.8461 216.75 94.6163 215.98C95.3865 215.21 95.3865 213.97 95.3865 211.491V209.873C95.3865 207.394 95.3865 206.154 94.6163 205.384C93.8461 204.614 92.6066 204.614 90.1274 204.614H88.5092C86.0301 204.614 84.7905 204.614 84.0203 205.384C83.2501 206.154 83.2501 207.394 83.2501 209.873L83.2501 211.491C83.2501 213.97 83.2501 215.21 84.0203 215.98C84.7905 216.75 86.0301 216.75 88.5092 216.75H90.1274Z" fill="#FF6E3C"/>
<path fill-rule="evenodd" clip-rule="evenodd" d="M89.3183 220.29V216.75H85.7785C87.3767 216.75 88.1757 216.75 88.6982 217.213C88.7537 217.262 88.8062 217.315 88.8554 217.37C89.3183 217.893 89.3183 218.692 89.3183 220.29Z" fill="#FF6E3C"/>
<path fill-rule="evenodd" clip-rule="evenodd" d="M98.4206 210.682H95.3865V207.648C95.3865 209.018 95.3865 209.702 95.7833 210.15C95.8254 210.198 95.8704 210.243 95.918 210.285C96.3659 210.682 97.0508 210.682 98.4206 210.682Z" fill="#FF6E3C"/>
<path d="M124.8 130C127.251 130 128.477 130 129.238 129.238C130 128.477 130 127.251 130 124.8V111.2C130 108.749 130 107.523 129.238 106.762C128.477 106 127.251 106 124.8 106H111.2C108.749 106 107.523 106 106.762 106.762C106 107.523 106 108.749 106 111.2L106 124.8C106 127.251 106 128.477 106.762 129.238C107.523 130 108.749 130 111.2 130L124.8 130Z" fill="#FF6E3C"/>
<path fill-rule="evenodd" clip-rule="evenodd" d="M135 124H130L130 119C130 121.257 130 122.386 130.654 123.124C130.723 123.203 130.797 123.277 130.876 123.346C131.614 124 132.743 124 135 124Z" fill="#FF6E3C"/>
<path fill-rule="evenodd" clip-rule="evenodd" d="M119 130H124V135C124 132.743 124 131.614 123.346 130.876C123.277 130.797 123.203 130.723 123.124 130.654C122.386 130 121.257 130 119 130Z" fill="#FF6E3C"/>
</svg>
